<svg width="22" height="22" viewBox="0 0 22 22" fill="none" xmlns="http://www.w3.org/2000/svg">
<path d="M10.9993 0.167969C16.9902 0.167969 21.8327 5.0213 21.8327 11.0013C21.8327 16.9921 16.9902 21.8346 10.9993 21.8346C5.01935 21.8346 0.166016 16.9921 0.166016 11.0013C0.166016 5.0213 5.01935 0.167969 10.9993 0.167969ZM10.6202 5.5088C10.176 5.5088 9.80768 5.8663 9.80768 6.3213V11.7921C9.80768 12.0738 9.95935 12.3338 10.2085 12.4855L14.4552 15.0205C14.5852 15.0963 14.726 15.1396 14.8777 15.1396C15.1485 15.1396 15.4193 14.9988 15.571 14.7388C15.7985 14.3596 15.6793 13.8613 15.2893 13.623L11.4327 11.3263V6.3213C11.4327 5.8663 11.0643 5.5088 10.6202 5.5088Z" fill="#FF695A"/>
</svg>
