<svg width="38" height="38" viewBox="0 0 38 38" fill="none" xmlns="http://www.w3.org/2000/svg">
<path d="M37.6875 19.0001C37.6885 15.8915 36.914 12.8318 35.4342 10.0981C33.9544 7.36435 31.816 5.04295 29.2127 3.34412C26.6094 1.6453 23.6235 0.622716 20.5253 0.368996C17.4271 0.115275 14.3145 0.63843 11.4695 1.89108C8.62455 3.14373 6.13697 5.0863 4.23212 7.54285C2.32726 9.9994 1.0653 12.8923 0.560523 15.9596C0.0557501 19.0269 0.324113 22.1717 1.34131 25.1091C2.3585 28.0466 4.09239 30.6838 6.38594 32.7821L6.61953 32.9977C10.0359 36.0193 14.4392 37.6871 19 37.6871C23.5608 37.6871 27.9642 36.0193 31.3805 32.9977L31.6141 32.7821C33.5298 31.034 35.0594 28.9053 36.1053 26.5321C37.1511 24.1589 37.69 21.5935 37.6875 19.0001ZM3.1875 19.0001C3.18656 16.4391 3.80767 13.9161 4.99744 11.6483C6.1872 9.38039 7.91001 7.43543 10.0177 5.98065C12.1254 4.52586 14.5549 3.60479 17.0973 3.29663C19.6397 2.98847 22.219 3.30245 24.6132 4.21157C27.0074 5.12069 29.145 6.59774 30.8421 8.51571C32.5392 10.4337 33.7451 12.7352 34.356 15.2222C34.9669 17.7093 34.9646 20.3076 34.3493 22.7936C33.7339 25.2796 32.524 27.5789 30.8234 29.4938C29.2206 27.1694 26.9627 25.3743 24.3367 24.3368C25.7451 23.2275 26.7729 21.7069 27.277 19.9864C27.7811 18.2659 27.7366 16.4311 27.1496 14.7371C26.5626 13.0431 25.4623 11.5741 24.0017 10.5344C22.5411 9.49478 20.7928 8.9361 19 8.9361C17.2072 8.9361 15.4589 9.49478 13.9983 10.5344C12.5377 11.5741 11.4374 13.0431 10.8504 14.7371C10.2634 16.4311 10.2189 18.2659 10.723 19.9864C11.2271 21.7069 12.2549 23.2275 13.6633 24.3368C11.0373 25.3743 8.77936 27.1694 7.17656 29.4938C4.6023 26.6051 3.18222 22.8694 3.1875 19.0001ZM13.25 17.5626C13.25 16.4253 13.5872 15.3136 14.2191 14.3681C14.8509 13.4225 15.7489 12.6855 16.7996 12.2503C17.8502 11.8151 19.0064 11.7012 20.1218 11.9231C21.2372 12.1449 22.2617 12.6926 23.0659 13.4967C23.87 14.3009 24.4177 15.3254 24.6395 16.4408C24.8614 17.5562 24.7475 18.7123 24.3123 19.763C23.8771 20.8137 23.1401 21.7117 22.1945 22.3435C21.2489 22.9754 20.1372 23.3126 19 23.3126C17.4765 23.3078 16.0167 22.7005 14.9394 21.6232C13.8621 20.5459 13.2547 19.0861 13.25 17.5626ZM9.31485 31.4884C10.3551 29.8635 11.7874 28.5265 13.4799 27.6005C15.1724 26.6744 17.0707 26.189 19 26.189C20.9293 26.189 22.8276 26.6744 24.5201 27.6005C26.2126 28.5265 27.6449 29.8635 28.6852 31.4884C25.916 33.6419 22.508 34.8111 19 34.8111C15.492 34.8111 12.084 33.6419 9.31485 31.4884Z" fill="#07003F"/>
</svg>
