<svg width="54" height="54" viewBox="0 0 54 54" fill="none" xmlns="http://www.w3.org/2000/svg">
<circle cx="27" cy="27" r="27" fill="#FBFBFC"/>
<g clip-path="url(#clip0_207_7)">
<path d="M37.0049 25.3447C37.7666 25.7061 38.4551 26.1602 39.0703 26.707C39.6855 27.2539 40.2129 27.874 40.6523 28.5674C41.0918 29.2607 41.4238 30.0029 41.6484 30.7939C41.873 31.585 41.9902 32.4053 42 33.2549C42 34.4561 41.7705 35.5889 41.3115 36.6533C40.8525 37.7178 40.2275 38.6455 39.4365 39.4365C38.6455 40.2275 37.7178 40.8525 36.6533 41.3115C35.5889 41.7705 34.4561 42 33.2549 42C32.4053 42 31.585 41.8828 30.7939 41.6484C30.0029 41.4141 29.2656 41.082 28.582 40.6523C27.8984 40.2227 27.2783 39.7002 26.7217 39.085C26.165 38.4697 25.7061 37.7764 25.3447 37.0049H12V14.5049H16.9951V12H19.5V14.5049H29.5049V12H31.9951V14.5049H37.0049V25.3447ZM14.5049 19.5H34.5V16.9951H14.5049V19.5ZM24.583 34.5C24.5244 34.0898 24.4951 33.6748 24.4951 33.2549C24.4951 32.0439 24.7246 30.9062 25.1836 29.8418C25.6426 28.7773 26.2676 27.8496 27.0586 27.0586C27.8496 26.2676 28.7773 25.6426 29.8418 25.1836C30.9062 24.7246 32.0439 24.4951 33.2549 24.4951C33.6748 24.4951 34.0898 24.5244 34.5 24.583V22.0049H14.5049V34.5H24.583ZM33.2549 39.4951C34.1143 39.4951 34.9199 39.334 35.6719 39.0117C36.4238 38.6895 37.0879 38.2402 37.6641 37.6641C38.2402 37.0879 38.6846 36.4287 38.9971 35.6865C39.3096 34.9443 39.4756 34.1338 39.4951 33.2549C39.4951 32.3955 39.334 31.585 39.0117 30.8232C38.6895 30.0615 38.2451 29.3975 37.6787 28.8311C37.1123 28.2646 36.4482 27.8203 35.6865 27.498C34.9248 27.1758 34.1143 27.0098 33.2549 27C32.3857 27 31.5752 27.1611 30.8232 27.4834C30.0713 27.8057 29.4072 28.2549 28.8311 28.8311C28.2549 29.4072 27.8105 30.0713 27.498 30.8232C27.1855 31.5752 27.0195 32.3857 27 33.2549C27 34.124 27.1611 34.9346 27.4834 35.6865C27.8057 36.4385 28.2549 37.0977 28.8311 37.6641C29.4072 38.2305 30.0713 38.6748 30.8232 38.9971C31.5752 39.3193 32.3857 39.4854 33.2549 39.4951ZM34.5 31.9951H37.0049V34.5H31.9951V29.5049H34.5V31.9951Z" fill="#3D4BE0"/>
</g>
<defs>
<clipPath id="clip0_207_7">
<rect width="30" height="30" fill="white" transform="translate(12 12)"/>
</clipPath>
</defs>
</svg>
