<svg width="23" height="26" viewBox="0 0 23 26" fill="none" xmlns="http://www.w3.org/2000/svg">
<path d="M13.0656 0.5C13.375 0.5 13.6349 0.7625 13.6349 1.075V5.1C13.6349 7.3875 15.4913 9.2625 17.7686 9.275C18.6968 9.275 19.4517 9.2875 20.0087 9.2875L20.2195 9.28657C20.6 9.28368 21.1122 9.275 21.5557 9.275C21.8775 9.275 22.125 9.525 22.125 9.8375V19.8875C22.125 22.9875 19.625 25.5 16.5557 25.5H6.71658C3.48639 25.5 0.875 22.8625 0.875 19.6125V6.1375C0.875 3.0375 3.36262 0.5 6.45668 0.5H13.0656ZM11.0483 8.925C10.5408 8.925 10.12 9.3375 10.12 9.8625V15.8875L8.15223 13.8875C7.79332 13.525 7.21163 13.525 6.85272 13.8875C6.49381 14.25 6.49381 14.8375 6.85272 15.2125L10.3923 18.8C10.479 18.8875 10.578 18.95 10.6894 19C10.8007 19.05 10.9245 19.075 11.0483 19.075C11.172 19.075 11.2834 19.05 11.3948 19C11.5062 18.95 11.6052 18.8875 11.6918 18.8L15.2438 15.2125C15.6027 14.8375 15.6027 14.25 15.2314 13.8875C14.8725 13.525 14.2908 13.525 13.9319 13.8875L11.9641 15.8875V9.8625C11.9641 9.3375 11.5557 8.925 11.0483 8.925ZM15.4313 1.63262C15.4313 1.09387 16.0786 0.826375 16.4474 1.21512C17.7865 2.62012 20.1244 5.07638 21.4313 6.44887C21.7927 6.82762 21.5278 7.45638 21.0056 7.45763C19.9895 7.46138 18.7902 7.45763 17.9276 7.44888C16.5588 7.44888 15.4313 6.31012 15.4313 4.92762V1.63262Z" fill="#FBFBFC"/>
</svg>
