<svg width="20" height="22" viewBox="0 0 20 22" fill="none" xmlns="http://www.w3.org/2000/svg">
<path d="M5.66667 13.167C5.35972 13.167 5.10225 13.063 4.89425 12.855C4.68697 12.6477 4.58333 12.3906 4.58333 12.0837C4.58333 11.7767 4.68697 11.5192 4.89425 11.3112C5.10225 11.104 5.35972 11.0003 5.66667 11.0003H14.3333C14.6403 11.0003 14.8974 11.104 15.1047 11.3112C15.3127 11.5192 15.4167 11.7767 15.4167 12.0837C15.4167 12.3906 15.3127 12.6477 15.1047 12.855C14.8974 13.063 14.6403 13.167 14.3333 13.167H5.66667ZM5.66667 17.5003C5.35972 17.5003 5.10225 17.3963 4.89425 17.1883C4.68697 16.981 4.58333 16.7239 4.58333 16.417C4.58333 16.11 4.68697 15.8529 4.89425 15.6457C5.10225 15.4377 5.35972 15.3337 5.66667 15.3337H11.0833C11.3903 15.3337 11.6478 15.4377 11.8558 15.6457C12.063 15.8529 12.1667 16.11 12.1667 16.417C12.1667 16.7239 12.063 16.981 11.8558 17.1883C11.6478 17.3963 11.3903 17.5003 11.0833 17.5003H5.66667ZM2.41667 21.8337C1.82083 21.8337 1.31058 21.6217 0.885917 21.1977C0.461972 20.7731 0.25 20.2628 0.25 19.667V4.50033C0.25 3.90449 0.461972 3.3946 0.885917 2.97066C1.31058 2.54599 1.82083 2.33366 2.41667 2.33366H3.5V1.25033C3.5 0.943381 3.60364 0.685909 3.81092 0.477909C4.01892 0.270631 4.27639 0.166992 4.58333 0.166992C4.89028 0.166992 5.14775 0.270631 5.35575 0.477909C5.56303 0.685909 5.66667 0.943381 5.66667 1.25033V2.33366H14.3333V1.25033C14.3333 0.943381 14.4373 0.685909 14.6453 0.477909C14.8526 0.270631 15.1097 0.166992 15.4167 0.166992C15.7236 0.166992 15.9807 0.270631 16.188 0.477909C16.396 0.685909 16.5 0.943381 16.5 1.25033V2.33366H17.5833C18.1792 2.33366 18.6894 2.54599 19.1141 2.97066C19.538 3.3946 19.75 3.90449 19.75 4.50033V19.667C19.75 20.2628 19.538 20.7731 19.1141 21.1977C18.6894 21.6217 18.1792 21.8337 17.5833 21.8337H2.41667ZM2.41667 19.667H17.5833V8.83366H2.41667V19.667Z" fill="#07003F"/>
</svg>
