<svg width="50" height="50" viewBox="0 0 50 50" fill="none" xmlns="http://www.w3.org/2000/svg">
<path fill-rule="evenodd" clip-rule="evenodd" d="M25 50C38.8071 50 50 38.8071 50 25C50 11.1929 38.8071 0 25 0C11.1929 0 0 11.1929 0 25C0 38.8071 11.1929 50 25 50Z" fill="#07003F"/>
<path d="M39.9838 24.2591C40.1603 24.253 40.3362 24.2825 40.501 24.3458C40.6658 24.4092 40.8162 24.5051 40.9432 24.6277C41.0702 24.7504 41.1712 24.8974 41.2402 25.06C41.3092 25.2226 41.3447 25.3973 41.3447 25.5739C41.3447 25.7505 41.3092 25.9253 41.2402 26.0878C41.1712 26.2504 41.0702 26.3974 40.9432 26.5201C40.8162 26.6428 40.6658 26.7387 40.501 26.802C40.3362 26.8653 40.1603 26.8949 39.9838 26.8888H36.3291V29.2325H39.9838C40.1613 29.2238 40.3388 29.2513 40.5054 29.3133C40.672 29.3753 40.8243 29.4704 40.953 29.593C41.0817 29.7156 41.1842 29.863 41.2542 30.0264C41.3242 30.1898 41.3603 30.3657 41.3603 30.5435C41.3603 30.7212 41.3242 30.8971 41.2542 31.0605C41.1842 31.2239 41.0817 31.3713 40.953 31.4939C40.8243 31.6165 40.672 31.7116 40.5054 31.7736C40.3388 31.8356 40.1613 31.8631 39.9838 31.8544H35.0197C34.6727 31.8532 34.3403 31.7145 34.0952 31.4689C33.8501 31.2232 33.7123 30.8905 33.7119 30.5435V20.606C33.7119 19.8825 34.2978 19.2888 35.0197 19.2888H39.9932C40.3306 19.3062 40.6483 19.4528 40.8806 19.6981C41.1129 19.9434 41.2419 20.2687 41.2409 20.6066C41.2399 20.9444 41.109 21.2689 40.8752 21.5129C40.6415 21.7568 40.3229 21.9015 39.9854 21.9169H36.3307V24.2606L39.9838 24.2591ZM31.9619 30.5419C31.959 30.8899 31.8189 31.2227 31.5719 31.4679C31.325 31.7131 30.9912 31.8509 30.6432 31.8513C30.4371 31.8533 30.2334 31.8073 30.0482 31.717C29.863 31.6267 29.7013 31.4945 29.576 31.331L24.49 24.4138V30.5403C24.49 30.888 24.3519 31.2215 24.1061 31.4673C23.8602 31.7132 23.5268 31.8513 23.1791 31.8513C22.8314 31.8513 22.498 31.7132 22.2521 31.4673C22.0063 31.2215 21.8682 30.888 21.8682 30.5403V20.6028C21.8682 20.0419 22.2354 19.5388 22.7635 19.3591C22.8939 19.313 23.0314 19.2903 23.1697 19.2919C23.576 19.2919 23.951 19.5122 24.2025 19.8216L29.3291 26.7544V20.6028C29.3291 19.8794 29.915 19.2856 30.64 19.2856C31.365 19.2856 31.9588 19.8794 31.9588 20.6028L31.9619 30.5419ZM19.9994 30.5419C19.9978 30.8904 19.858 31.2241 19.6109 31.4698C19.3637 31.7155 19.0292 31.8532 18.6807 31.8528C18.3347 31.8499 18.0039 31.7106 17.7602 31.4651C17.5165 31.2196 17.3795 30.8878 17.3791 30.5419V20.6044C17.3791 19.881 17.965 19.2872 18.69 19.2872C19.4135 19.2872 20.001 19.881 20.001 20.6044L19.9994 30.5419ZM14.8635 31.8528H9.89004C9.54189 31.852 9.20811 31.7139 8.96119 31.4684C8.71428 31.223 8.57417 30.89 8.57129 30.5419V20.6044C8.57129 19.881 9.16504 19.2872 9.89004 19.2872C10.615 19.2872 11.201 19.881 11.201 20.6044V29.231H14.8635C15.2112 29.231 15.5446 29.3691 15.7905 29.6149C16.0363 29.8608 16.1744 30.1942 16.1744 30.5419C16.1744 30.8896 16.0363 31.223 15.7905 31.4689C15.5446 31.7147 15.2112 31.8528 14.8635 31.8528Z" fill="#FBFBFC"/>
</svg>
