<svg width="46" height="18" viewBox="0 0 46 18" fill="none" xmlns="http://www.w3.org/2000/svg">
<path d="M43.9775 6.96281C44.2246 6.95429 44.4708 6.9956 44.7016 7.08427C44.9324 7.17295 45.1429 7.30717 45.3207 7.47894C45.4985 7.65072 45.6399 7.85653 45.7365 8.0841C45.8331 8.31168 45.8828 8.55637 45.8828 8.80359C45.8828 9.05082 45.8331 9.29551 45.7365 9.52308C45.6399 9.75066 45.4985 9.95647 45.3207 10.1282C45.1429 10.3 44.9324 10.4342 44.7016 10.5229C44.4708 10.6116 44.2246 10.6529 43.9775 10.6444H38.8609V13.9256H43.9775C44.2261 13.9135 44.4745 13.952 44.7077 14.0387C44.941 14.1255 45.1542 14.2587 45.3344 14.4303C45.5146 14.6019 45.658 14.8084 45.7561 15.0371C45.8541 15.2658 45.9046 15.5121 45.9046 15.7609C45.9046 16.0098 45.8541 16.256 45.7561 16.4848C45.658 16.7135 45.5146 16.9199 45.3344 17.0916C45.1542 17.2632 44.941 17.3964 44.7077 17.4832C44.4745 17.5699 44.2261 17.6084 43.9775 17.5962H37.0278C36.542 17.5945 36.0766 17.4005 35.7335 17.0565C35.3904 16.7126 35.1975 16.2468 35.1969 15.7609V1.84844C35.1969 0.835624 36.0172 0.00437546 37.0278 0.00437546H43.9906C44.463 0.0287821 44.9078 0.233969 45.233 0.577427C45.5582 0.920884 45.7389 1.37629 45.7374 1.84927C45.736 2.32226 45.5527 2.77658 45.2255 3.11809C44.8983 3.45961 44.4522 3.66215 43.9797 3.68375H38.8631V6.965L43.9775 6.96281ZM32.7469 15.7588C32.7428 16.246 32.5466 16.7119 32.2009 17.0551C31.8551 17.3984 31.3878 17.5913 30.9006 17.5919C30.6122 17.5947 30.327 17.5303 30.0677 17.4039C29.8084 17.2775 29.582 17.0924 29.4066 16.8634L22.2862 7.17937V15.7566C22.2862 16.2433 22.0929 16.7101 21.7487 17.0543C21.4045 17.3985 20.9377 17.5919 20.4509 17.5919C19.9642 17.5919 19.4974 17.3985 19.1532 17.0543C18.809 16.7101 18.6156 16.2433 18.6156 15.7566V1.84406C18.6156 1.05875 19.1297 0.354376 19.8691 0.102814C20.0517 0.038315 20.2442 0.00647238 20.4378 0.00874901C21.0066 0.00874901 21.5316 0.317186 21.8837 0.750311L29.0609 10.4562V1.84406C29.0609 0.831248 29.8812 0 30.8962 0C31.9112 0 32.7425 0.831248 32.7425 1.84406L32.7469 15.7588ZM15.9994 15.7588C15.9971 16.2467 15.8015 16.7138 15.4554 17.0578C15.1094 17.4018 14.6411 17.5946 14.1531 17.5941C13.6688 17.59 13.2057 17.395 12.8645 17.0513C12.5232 16.7076 12.3315 16.2431 12.3309 15.7588V1.84625C12.3309 0.833438 13.1513 0.00218773 14.1663 0.00218773C15.1791 0.00218773 16.0016 0.833438 16.0016 1.84625L15.9994 15.7588ZM8.80906 17.5941H1.84625C1.35883 17.5929 0.891546 17.3995 0.545867 17.0559C0.200188 16.7123 0.00403169 16.2462 0 15.7588V1.84625C0 0.833438 0.831252 0.00218773 1.84625 0.00218773C2.86125 0.00218773 3.68156 0.833438 3.68156 1.84625V13.9234H8.80906C9.29582 13.9234 9.76264 14.1168 10.1068 14.461C10.451 14.8052 10.6444 15.272 10.6444 15.7588C10.6444 16.2455 10.451 16.7123 10.1068 17.0565C9.76264 17.4007 9.29582 17.5941 8.80906 17.5941Z" fill="#26215B"/>
</svg>
