<svg width="40" height="40" viewBox="0 0 40 40" fill="none" xmlns="http://www.w3.org/2000/svg">
<path d="M26.6665 13.3335C29.3187 13.3335 31.8622 14.3871 33.7376 16.2624C35.6129 18.1378 36.6665 20.6813 36.6665 23.3335V35.0002H29.9998V23.3335C29.9998 22.4494 29.6486 21.6016 29.0235 20.9765C28.3984 20.3514 27.5506 20.0002 26.6665 20.0002C25.7824 20.0002 24.9346 20.3514 24.3095 20.9765C23.6844 21.6016 23.3332 22.4494 23.3332 23.3335V35.0002H16.6665V23.3335C16.6665 20.6813 17.7201 18.1378 19.5954 16.2624C21.4708 14.3871 24.0143 13.3335 26.6665 13.3335V13.3335Z" fill="#26215B"/>
<path d="M10.0002 15H3.3335V35H10.0002V15Z" fill="#26215B"/>
<path d="M6.66683 10.0002C8.50778 10.0002 10.0002 8.50778 10.0002 6.66683C10.0002 4.82588 8.50778 3.3335 6.66683 3.3335C4.82588 3.3335 3.3335 4.82588 3.3335 6.66683C3.3335 8.50778 4.82588 10.0002 6.66683 10.0002Z" fill="#26215B"/>
</svg>
