<svg width="18" height="20" viewBox="0 0 18 20" fill="none" xmlns="http://www.w3.org/2000/svg">
<path fill-rule="evenodd" clip-rule="evenodd" d="M10.204 0.243318C8.347 -0.174682 7 1.42132 7 2.99932V16.9993C7 18.5773 8.347 20.1733 10.204 19.7553C14.666 18.7513 18 14.7653 18 9.99932C18 5.23332 14.666 1.24732 10.204 0.243318ZM4.707 6.29232C4.51947 6.10485 4.26516 5.99953 4 5.99953C3.73484 5.99953 3.48053 6.10485 3.293 6.29232L0.292999 9.29232C0.105528 9.47985 0.000213623 9.73415 0.000213623 9.99932C0.000213623 10.2645 0.105528 10.5188 0.292999 10.7063L3.293 13.7063C3.4816 13.8885 3.7342 13.9893 3.9964 13.987C4.2586 13.9847 4.50941 13.8795 4.69482 13.6941C4.88023 13.5087 4.9854 13.2579 4.98767 12.9957C4.98995 12.7335 4.88916 12.4809 4.707 12.2923L3.414 10.9993H12C12.2652 10.9993 12.5196 10.894 12.7071 10.7064C12.8946 10.5189 13 10.2645 13 9.99932C13 9.7341 12.8946 9.47975 12.7071 9.29221C12.5196 9.10468 12.2652 8.99932 12 8.99932H3.414L4.707 7.70632C4.89447 7.51879 4.99979 7.26448 4.99979 6.99932C4.99979 6.73415 4.89447 6.47985 4.707 6.29232Z" fill="#FF695A"/>
</svg>
